<?xml version="1.0" standalone="no"?>
<!DOCTYPE svg PUBLIC "-//W3C//DTD SVG 1.1//EN" "http://www.w3.org/Graphics/SVG/1.1/DTD/svg11.dtd">
<svg t="1768998778197" class="icon" viewBox="0 0 1024 1024" version="1.1" xmlns="http://www.w3.org/2000/svg" p-id="4718" xmlns:xlink="http://www.w3.org/1999/xlink" width="200" height="200"><path d="M64.673684 0m107.789474 0l679.073684 0q107.789474 0 107.789474 107.789474l0 474.273684q0 107.789474-107.789474 107.789474l-679.073684 0q-107.789474 0-107.789474-107.789474l0-474.273684q0-107.789474 107.789474-107.789474Z" fill="#000000" p-id="4719"></path><path d="M107.789474 43.115789m75.452631 0l657.51579 0q75.452632 0 75.452631 75.452632l0 452.71579q0 75.452632-75.452631 75.452631l-657.51579 0q-75.452632 0-75.452631-75.452631l0-452.71579q0-75.452632 75.452631-75.452632Z" fill="#ffffff" p-id="4720" data-spm-anchor-id="a313x.search_index.0.i0.3b7b3a81IbVaac" class="selected"></path><path d="M209.693642 194.064168q0-11.8784 13.635369-19.833263 13.775495-8.084211 28.801347-8.08421 19.078737 0 22.743579 13.387452l79.192926 280.425095 78.578526-280.425095q3.654063-13.387453 22.7328-13.387452 14.519242 0 28.413306 8.342905 14.023411 8.202779 14.02341 19.574568 0 1.013221-1.013221 5.173895l-99.274105 325.394863q-3.169011 10.865179-15.543242 16.922948-12.374232 5.9392-27.917474 5.9392-35.742989 0-43.449937-22.862148l-99.920842-325.394863q-1.002442-4.160674-1.002442-5.173895zM533.590232 523.102316V186.863832q0-8.332126 6.187115-14.530021 6.187116-6.187116 15.532464-6.187116h102.443115q122.664421 0 122.664421 108.123621 0 42.447495-18.453558 68.338526-18.313432 25.761684-49.389136 35.117811l67.831915 125.682526q2.533053 3.158232 2.533053 8.342905 0 12.880842-13.5168 23.993937-13.398232 11.113095-28.424084 11.113095-15.036632 0-23.239411-15.909727l-73.512421-142.864168h-43.460716V523.102316q0 9.851958-9.851957 15.543242-9.722611 5.680505-23.746021 5.680505-13.387453 0-23.498106-5.680505-10.099874-5.691284-10.099873-15.543242z m67.195957-187.823158h56.966737q55.328337 0 55.328337-54.832505 0-55.317558-55.328337-55.317558h-56.966737v110.139284zM873.094737 902.370358V668.294737a43.115789 43.115789 0 0 0-43.11579-43.11579H640.194021c-36.281937 0-56.341558 42.081011-33.490189 70.278737l189.784926 234.064842C822.0672 961.072505 873.094737 942.985432 873.094737 902.359579z" fill="#000000" p-id="4721"></path><path d="M829.978947 844.713768V582.063158a21.557895 21.557895 0 0 0-21.557894-21.557895H595.019453c-18.151747 0-28.176168 21.062063-16.728927 35.150148l213.4016 262.65061C804.486737 874.064842 829.978947 865.010526 829.978947 844.713768z" fill="#FFFFFF" p-id="4722"></path><path d="M571.284211 603.621053m21.557894 0l258.694737 0q21.557895 0 21.557895 21.557894l0 0q0 21.557895-21.557895 21.557895l-258.694737 0q-21.557895 0-21.557894-21.557895l0 0q0-21.557895 21.557894-21.557894Z" fill="#FFFFFF" p-id="4723"></path></svg>
